<svg xmlns="http://www.w3.org/2000/svg" width="24" height="24" viewBox="0 0 24 24">
    <g data-name="그룹 705">
        <path data-name="패스 732" d="M12 0A12 12 0 1 1 0 12 12 12 0 0 1 12 0z" transform="rotate(90 12 12)" style="fill:none"/>
        <path data-name="Icon ionic-ios-arrow-forward" d="m15.729 11.694-4.247-4.159a.772.772 0 0 1 0-1.11.82.82 0 0 1 1.136 0l4.811 4.713a.773.773 0 0 1 .023 1.084l-4.832 4.746a.818.818 0 0 1-1.136 0 .772.772 0 0 1 0-1.11z" transform="rotate(90 12.722 10.474)" style="fill:#333"/>
    </g>
</svg>
