<svg xmlns="http://www.w3.org/2000/svg" width="18" height="18" viewBox="0 0 18 18">
    <g data-name="그룹 173">
        <g data-name="Icon ionic-ios-close-circle-outline">
            <circle data-name="타원 32" cx="8.5" cy="8.5" r="8.5" transform="translate(1 1)" style="fill:#f5f5f5"/>
            <path data-name="패스 12" d="m19.4 18.372-2.385-2.385L19.4 13.6a.723.723 0 0 0-1.023-1.023l-2.385 2.385L13.6 12.58a.723.723 0 1 0-1.018 1.02l2.385 2.385-2.385 2.385a.7.7 0 0 0 0 1.023.718.718 0 0 0 1.023 0l2.385-2.385 2.385 2.385a.726.726 0 0 0 1.023 0 .718.718 0 0 0 .002-1.021z" transform="translate(-6.989 -6.987)" style="fill:#b4b4b4"/>
            <path data-name="패스 13" d="M12.375 4.587a7.785 7.785 0 1 1-5.508 2.28 7.737 7.737 0 0 1 5.508-2.28m0-1.212a9 9 0 1 0 9 9 9 9 0 0 0-9-9z" transform="translate(-3.375 -3.375)" style="fill:#b4b4b4"/>
        </g>
    </g>
</svg>
