<svg xmlns="http://www.w3.org/2000/svg" width="26" height="29.714" viewBox="0 0 26 29.714">
    <path data-name="Icon awesome-apple-alt" d="M20.361 7.486a5.686 5.686 0 0 1 3.71 2.437 10.877 10.877 0 0 1 1.739 4.527 14.433 14.433 0 0 1-.058 4.991 15.682 15.682 0 0 1-2.782 6.906 7.518 7.518 0 0 1-6.26 3.366 4.4 4.4 0 0 1-2.029-.58 3.276 3.276 0 0 0-3.363 0 4.4 4.4 0 0 1-2.029.58 7.518 7.518 0 0 1-6.26-3.366 15.682 15.682 0 0 1-2.783-6.905 14.433 14.433 0 0 1-.058-4.991 10.877 10.877 0 0 1 1.739-4.527 5.686 5.686 0 0 1 3.71-2.437 9.683 9.683 0 0 1 3.826.406A16.07 16.07 0 0 1 13 9.286a16.07 16.07 0 0 1 3.536-1.393 9.69 9.69 0 0 1 3.827-.406zm-3.188-2.379a4.907 4.907 0 0 1-2.145 1.1A6.772 6.772 0 0 1 13 6.5l-.869-.058a7.447 7.447 0 0 1 0-1.857 5.177 5.177 0 0 1 1.333-3.192A4.907 4.907 0 0 1 15.608.29 6.772 6.772 0 0 1 17.637 0l.869.058.058.871a6.807 6.807 0 0 1-.29 2.031 4.906 4.906 0 0 1-1.101 2.147z" transform="translate(.001)" style="fill:current"/>
</svg>
