<svg xmlns="http://www.w3.org/2000/svg" width="32" height="32" viewBox="0 0 32 32">
    <g data-name="그룹 255">
        <g data-name="그룹 227">
            <path data-name="사각형 477" style="fill:none" d="M0 0h32v32H0z"/>
        </g>
        <g data-name="그룹 239">
            <path data-name="패스 455" d="M14.029 33.444H.971a.985.985 0 0 0-.971 1v1.126a.985.985 0 0 0 .971 1h13.058a.985.985 0 0 0 .971-1v-1.128a.985.985 0 0 0-.971-1" transform="translate(9 -11.937)" style="stroke:#979797;stroke-width:1.5px;fill:none"/>
            <path data-name="패스 456" d="M2.312 13.878h12.936v-7.64A6.374 6.374 0 0 0 8.78 0a6.375 6.375 0 0 0-6.468 6.238zM8.023 1.75a.61.61 0 0 1 .664.556.619.619 0 0 1-.536.684 3.483 3.483 0 0 0-1.593.738 4.209 4.209 0 0 0-1.375 3.508.6.6 0 1 1-1.209 0c0-5 4.008-5.481 4.048-5.486" transform="translate(7.72 8)" style="fill:#979797"/>
        </g>
    </g>
</svg>
