<svg xmlns="http://www.w3.org/2000/svg" width="30" height="30" viewBox="0 0 30 30">
    <g data-name="그룹 264" transform="translate(-216 -488)">
        <circle data-name="타원 39" cx="15" cy="15" r="15" transform="translate(216 488)" style="fill:#b4b4b4"/>
        <g data-name="그룹 263">
            <g data-name="Icon feather-camera">
                <path data-name="패스 466" d="M18.167 20.1h-15A2.269 2.269 0 0 1 .9 17.833V8.667A2.269 2.269 0 0 1 3.167 6.4h3.012l1.488-2.233a.6.6 0 0 1 .5-.267h5a.6.6 0 0 1 .5.267L15.154 6.4h3.012a2.269 2.269 0 0 1 2.267 2.267v9.167a2.269 2.269 0 0 1-2.266 2.266zm-15-12.5A1.068 1.068 0 0 0 2.1 8.667v9.167A1.068 1.068 0 0 0 3.167 18.9h15a1.068 1.068 0 0 0 1.067-1.067V8.667A1.068 1.068 0 0 0 18.167 7.6h-3.334a.6.6 0 0 1-.5-.267L12.846 5.1H8.488L7 7.333a.6.6 0 0 1-.5.267z" transform="translate(220.5 490.5)" style="fill:#fff"/>
                <path data-name="패스 467" d="M15.333 12.9a3.933 3.933 0 1 1-3.933 3.933 3.938 3.938 0 0 1 3.933-3.933zm0 6.667a2.733 2.733 0 1 0-2.733-2.734 2.736 2.736 0 0 0 2.733 2.734z" transform="translate(215.833 486.5)" style="fill:#fff"/>
            </g>
        </g>
    </g>
</svg>
